<?xml version="1.0" standalone="no"?>
<!DOCTYPE svg PUBLIC "-//W3C//DTD SVG 20010904//EN"
 "http://www.w3.org/TR/2001/REC-SVG-20010904/DTD/svg10.dtd">
<svg version="1.0" xmlns="http://www.w3.org/2000/svg"
 width="256.000000pt" height="256.000000pt" viewBox="0 0 256.000000 256.000000"
 preserveAspectRatio="xMidYMid meet">
<metadata>
Created by potrace 1.11, written by Peter Selinger 2001-2013
</metadata>
<g transform="translate(0.000000,256.000000) scale(0.100000,-0.100000)"
fill="#000000" stroke="none">
<path d="M0 1280 l0 -1280 1280 0 1280 0 0 1280 0 1280 -1280 0 -1280 0 0
-1280z m516 569 c25 -13 54 -60 54 -89 0 -53 -57 -110 -110 -110 -37 0 -81 30
-96 65 -18 43 -9 87 25 118 39 37 74 41 127 16z m1052 -344 c47 -20 79 -50
104 -99 18 -36 21 -38 30 -20 19 34 72 85 113 107 32 18 57 22 130 22 109 0
170 -25 216 -88 54 -75 59 -111 59 -439 l0 -298 -75 0 -75 0 0 284 c0 185 -4
295 -11 317 -45 132 -224 143 -291 17 -22 -41 -23 -53 -26 -330 l-3 -288 -74
0 -74 0 -3 303 c-3 266 -5 306 -21 334 -25 48 -61 67 -121 67 -57 0 -99 -19
-145 -64 l-31 -32 0 -304 0 -304 -80 0 -80 0 2 408 3 407 53 3 c64 4 82 -8 82
-54 0 -45 12 -49 46 -12 65 69 188 98 272 63z m-1028 -405 l0 -410 -80 0 -80
0 0 403 c0 222 3 407 7 410 3 4 39 7 80 7 l73 0 0 -410z m340 -225 c32 -17 60
-61 60 -95 0 -29 -27 -77 -49 -90 -11 -5 -38 -10 -61 -10 -85 0 -131 97 -79
164 36 46 80 56 129 31z"/>
</g>
</svg>
