<?xml version="1.0" encoding="UTF-8"?>
<!DOCTYPE svg PUBLIC "-//W3C//DTD SVG 1.1//EN" "http://www.w3.org/Graphics/SVG/1.1/DTD/svg11.dtd">
<svg version="1.1" xmlns="http://www.w3.org/2000/svg" xmlns:xlink="http://www.w3.org/1999/xlink" x="0" y="0" width="500" height="462" viewBox="0, 0, 500, 462">
  <g id="Background">
    <rect x="0" y="0" width="500" height="462" fill="#FFFFFF"/>
  </g>
  <g id="Website">
    <path d="M82.42,277.576 L82.42,280.361 C82.42,312.729 112.768,338.98 150.07,338.98 L429.626,338.979 L429.626,378.689 L150.07,378.689 C105.639,378.145 60.375,355.236 42.937,312.762 C42.215,309.851 41.298,306.994 40.4,304.134 C39.977,302.793 39.715,301.95 39.45,301.076 C38.655,298.451 37.913,295.803 37.499,293.089 L37.134,289.862 C37.094,287.267 37.018,288.437 37.264,286.347 C37.317,285.521 37.364,285.87 37.227,285.292 C47.544,282.793 58.052,281.215 68.535,279.606 C70.81,279.268 72.257,279.057 76.885,278.385 C80.575,277.847 78.73,278.116 82.42,277.576 z" fill="#000000"/>
    <path d="M82.292,149.518 L82.292,149.518 L82.292,149.518 L82.271,150.365 L82.271,303.528 C79.726,303.978 77.18,304.411 74.634,304.847 C70.02,305.634 68.574,305.882 66.293,306.28 C58.29,307.513 50.389,309.308 42.5,311.115 C41.872,308.768 41.127,306.452 40.4,304.134 C39.977,302.793 39.715,301.95 39.45,301.076 C37.388,294.267 36.665,289.936 37.264,286.347 C37.41,285.322 37.233,284.65 36.639,283.819 L36.638,153.547 C51.776,151.415 67.047,150.501 82.292,149.518 L82.292,149.518 z" fill="#000000"/>
    <path d="M407.901,171.333 C422.32,172.57 436.765,173.176 451.214,173.321 L451.214,259.345 C451.038,283.409 437.913,303.014 421.385,312.482 C420.297,308.564 419.198,304.651 418.095,300.74 C414.655,288.266 410.83,275.984 406.962,263.722 C407.636,262.147 407.744,260.33 407.814,258.573 L407.901,171.333 z" fill="#000000"/>
    <path d="M342.73,59.468 C402.708,59.468 451.214,108.597 451.214,169.264 L451.214,175.354 C436.674,175.363 422.146,174.481 407.635,173.422 L407.639,169.264 C407.639,133.162 378.657,103.883 343.032,103.883 L143.977,103.883 C118.968,104.109 91.75,119.398 82.391,149.773 C67.089,150.014 51.844,151.557 36.639,153.561 C41.748,109.898 74.217,78.119 106.651,66.127 C118.847,61.618 131.288,59.792 143.977,59.468 L342.73,59.468 z" fill="#000000"/>
    <path d="M330.916,171.332 C341.57,172.11 351.247,177.763 357.567,188.677 L396.471,260.753 C398.636,264.627 406.08,264.148 409.83,264.893 C410.969,265.12 408.017,268.085 409.169,268.147 C412.73,278.763 415.936,289.555 419.094,300.365 C420.111,303.861 421.116,307.362 422.119,310.864 C417.813,312.062 413.409,312.368 409.015,312.482 C388.436,312.482 369.425,300.96 359.527,282.328 L329.442,225.695 L307.343,267.694 C296.985,267.585 286.629,267.392 276.273,267.203 C274.925,267.178 274.325,267.167 273.577,267.153 C261.646,266.928 249.714,266.731 237.78,266.655 L216.55,224.715 L191.389,272.617 C187.521,271.059 183.26,270.845 179.149,270.708 C177.152,270.747 175.153,270.725 173.158,270.825 C166.99,271.133 160.86,271.93 154.754,272.818 C151.709,273.278 153.256,273.038 150.111,273.539 C144.038,273.33 146.43,273.327 142.937,273.368 L185.975,189.534 C198.127,165.877 230.858,165.387 243.695,188.677 L272.309,240.65 L300.043,188.799 C307.455,175.553 318.534,171.367 330.917,171.333 L330.916,171.332 z" fill="#000000"/>
    <path d="M241.335,273.678 C252.04,273.762 262.745,273.957 273.449,274.152 C274.197,274.166 274.796,274.177 276.144,274.202 C285.32,274.367 294.497,274.543 303.674,274.651 C290.579,298.961 257.392,302.969 243.107,277.179 L241.335,273.678 z" fill="#000000"/>
    <path d="M122.716,167.592 C111.407,167.592 102.24,158.034 102.24,146.243 C102.24,134.453 111.407,124.895 122.716,124.895 C134.026,124.895 143.193,134.453 143.193,146.243 C143.193,158.034 134.026,167.592 122.716,167.592 z" fill="#000000"/>
    <path d="M139.708,171.333 L142.937,273.368 C134.86,273.463 136.848,273.271 129.252,273.678 C123.213,274.056 115.896,269.287 109.98,270.587 C108.54,270.903 107.143,271.393 105.725,271.796 L105.725,171.333 L139.708,171.333 z" fill="#000000"/>
    <path d="M105.725,270.047 C120.62,270.161 135.514,270.423 150.408,270.685 C151.448,270.703 152.282,270.718 154.157,270.751 C166.925,270.973 179.693,271.209 192.462,271.355 C174.242,304.03 128.066,309.417 108.191,274.753 L105.725,270.047 z" fill="#000000"/>
    <path d="M246.014,265.474 C248.464,269.184 250.956,273.032 253.566,276.511 C254.172,277.32 248.016,260.858 246.885,261.989 C244.586,264.288 255.037,279.451 256.761,277.383 C260.044,273.442 254.793,261.858 254.727,261.989 C239.119,293.206 286.708,262.279 261.117,262.279 C253.635,262.279 264.573,288.777 266.346,267.507 C267.312,255.905 262.522,273.636 267.798,276.802 C270.647,278.511 272.296,267.703 272.445,265.765 C273.227,255.606 270.679,274.938 274.188,275.64 C279.6,276.723 284.064,259.665 278.545,259.665 C276.582,259.665 275.054,275.276 277.673,275.931 C282.248,277.074 280.829,258.096 282.321,262.57 C289.94,285.427 276.489,270.133 289.291,263.732 C295.819,260.468 280.273,287.715 298.005,261.117" fill-opacity="0" stroke="#000000" stroke-width="10" stroke-linecap="round" stroke-linejoin="round"/>
    <path d="M244.852,264.312 C247.18,266.938 249.326,269.73 251.533,272.445" fill-opacity="0" stroke="#000000" stroke-width="10" stroke-linecap="round" stroke-linejoin="round"/>
    <path d="M243.4,263.441 C244.612,267.057 247.298,269.471 249.79,272.155" fill-opacity="0" stroke="#000000" stroke-width="10" stroke-linecap="round" stroke-linejoin="round"/>
    <path d="M243.981,262.279 C245.342,266.987 247.792,271.192 250.371,275.059" fill-opacity="0" stroke="#000000" stroke-width="10" stroke-linecap="round" stroke-linejoin="round"/>
    <path d="M299.506,269.896 C298.356,272.241 296.652,274.255 295.125,276.305" fill-opacity="0" stroke="#000000" stroke-width="2" stroke-linecap="round" stroke-linejoin="round"/>
    <path d="M300.074,266.651 C298.749,269.376 297.215,272.006 295.774,274.682" fill-opacity="0" stroke="#000000" stroke-width="2" stroke-linecap="round" stroke-linejoin="round"/>
    <path d="M300.074,266.408 C300.554,267.524 296.351,273.535 294.882,276.142" fill-opacity="0" stroke="#000000" stroke-width="2" stroke-linecap="round" stroke-linejoin="round"/>
    <path d="M301.777,265.759 C302.227,266.817 297.436,273.691 295.774,276.548" fill-opacity="0" stroke="#000000" stroke-width="2" stroke-linecap="round" stroke-linejoin="round"/>
    <path d="M301.696,267.057 C303.24,264.893 297.725,274.224 296.666,276.142" fill-opacity="0" stroke="#000000" stroke-width="2" stroke-linecap="round" stroke-linejoin="round"/>
    <path d="M302.588,267.868 C300.642,270.639 299.165,273.675 297.559,276.629" fill-opacity="0" stroke="#000000" stroke-width="2" stroke-linecap="round" stroke-linejoin="round"/>
    <path d="M304.13,266.732 C302.12,269.786 300.312,272.949 298.532,276.142" fill-opacity="0" stroke="#000000" stroke-width="2" stroke-linecap="round" stroke-linejoin="round"/>
    <path d="M304.941,266.164 C303.393,269.315 301.477,272.36 299.83,275.493" fill-opacity="0" stroke="#000000" stroke-width="2" stroke-linecap="round" stroke-linejoin="round"/>
    <path d="M304.941,267.543 C303.399,269.814 302.172,272.291 300.885,274.682" fill-opacity="0" stroke="#000000" stroke-width="2" stroke-linecap="round" stroke-linejoin="round"/>
    <path d="M306.239,265.434 C304.741,268.498 302.729,271.646 300.966,274.682" fill-opacity="0" stroke="#000000" stroke-width="2" stroke-linecap="round" stroke-linejoin="round"/>
    <path d="M305.59,267.057 C303.873,269.869 302.414,272.822 300.885,275.737" fill-opacity="0" stroke="#000000" stroke-width="2" stroke-linecap="round" stroke-linejoin="round"/>
    <path d="M306.077,266.489 C304.354,269.421 302.711,272.41 301.128,275.412" fill-opacity="0" stroke="#000000" stroke-width="2" stroke-linecap="round" stroke-linejoin="round"/>
    <path d="M306.158,267.381 C304.63,269.723 303.276,272.19 301.858,274.601" fill-opacity="0" stroke="#000000" stroke-width="2" stroke-linecap="round" stroke-linejoin="round"/>
    <path d="M306.482,266.894 C304.492,269.5 303.073,272.479 301.534,275.331" fill-opacity="0" stroke="#000000" stroke-width="2" stroke-linecap="round" stroke-linejoin="round"/>
    <path d="M306.32,266.245 C304.351,269.096 302.977,272.312 301.453,275.412" fill-opacity="0" stroke="#000000" stroke-width="2" stroke-linecap="round" stroke-linejoin="round"/>
    <path d="M307.131,265.272 C305.638,268.658 303.769,271.898 302.021,275.169" fill-opacity="0" stroke="#000000" stroke-width="2" stroke-linecap="round" stroke-linejoin="round"/>
    <path d="M306.969,265.921 C304.991,269.311 303.164,272.78 301.29,276.224" fill-opacity="0" stroke="#000000" stroke-width="2" stroke-linecap="round" stroke-linejoin="round"/>
    <path d="M306.807,266.164 C305.468,268.9 304.093,271.625 302.751,274.358" fill-opacity="0" stroke="#000000" stroke-width="2" stroke-linecap="round" stroke-linejoin="round"/>
    <path d="M307.456,266.164 C306.088,268.941 304.456,271.587 302.913,274.277" fill-opacity="0" stroke="#000000" stroke-width="2" stroke-linecap="round" stroke-linejoin="round"/>
    <path d="M239.637,263 C237.367,260.422 243.765,270.627 244.91,272.492" fill-opacity="0" stroke="#000000" stroke-width="2" stroke-linecap="round" stroke-linejoin="round"/>
    <path d="M237.933,261.297 C239.722,265.489 241.922,269.427 244.261,273.303" fill-opacity="0" stroke="#000000" stroke-width="2" stroke-linecap="round" stroke-linejoin="round"/>
    <path d="M238.664,263.568 C240.52,266.942 242.475,270.245 244.423,273.546" fill-opacity="0" stroke="#000000" stroke-width="2" stroke-linecap="round" stroke-linejoin="round"/>
    <path d="M238.015,263.244 C239.98,266.714 242.052,270.135 244.099,273.546" fill-opacity="0" stroke="#000000" stroke-width="2" stroke-linecap="round" stroke-linejoin="round"/>
    <path d="M239.069,265.272 C240.818,268.432 242.985,272.522 244.504,275.169" fill-opacity="0" stroke="#000000" stroke-width="2" stroke-linecap="round" stroke-linejoin="round"/>
    <path d="M239.069,266.732 C240.463,269.471 242.936,272.615 244.423,274.682" fill-opacity="0" stroke="#000000" stroke-width="2" stroke-linecap="round" stroke-linejoin="round"/>
    <path d="M238.42,265.11 C239.99,268.151 242.41,271.725 244.018,274.114" fill-opacity="0" stroke="#000000" stroke-width="2" stroke-linecap="round" stroke-linejoin="round"/>
    <path d="M238.826,265.515 C240.36,268.46 241.899,271.462 243.45,274.358" fill-opacity="0" stroke="#000000" stroke-width="2" stroke-linecap="round" stroke-linejoin="round"/>
    <path d="M239.15,266.489 C240.589,269.316 242.178,272.097 243.693,274.844" fill-opacity="0" stroke="#000000" stroke-width="2" stroke-linecap="round" stroke-linejoin="round"/>
    <path d="M238.339,264.704 C239.855,267.568 241.351,270.446 242.882,273.303" fill-opacity="0" stroke="#000000" stroke-width="2" stroke-linecap="round" stroke-linejoin="round"/>
    <path d="M238.339,265.515 C239.787,268.905 241.871,272.101 243.693,275.088" fill-opacity="0" stroke="#000000" stroke-width="2" stroke-linecap="round" stroke-linejoin="round"/>
    <path d="M243.206,273.952 C231.409,248.728 249.108,289.963 241.016,269.734" fill-opacity="0" stroke="#000000" stroke-width="2" stroke-linecap="round" stroke-linejoin="round"/>
    <path d="M244.18,275.575 C243.285,273.648 242.469,271.668 241.584,269.734" fill-opacity="0" stroke="#000000" stroke-width="2" stroke-linecap="round" stroke-linejoin="round"/>
    <path d="M173.585,269.243 C162.216,282.887 180.068,263.919 183.187,263.529 C187.481,262.993 172.469,277.074 175.529,274.014 C176.463,273.08 185.839,262.117 187.015,262.705 C191.793,265.094 172.248,277.502 177.12,275.31 C181.818,273.196 184.668,261.005 188.311,264.649 C189.999,266.337 174.998,278.752 186.897,271.952" fill-opacity="0" stroke="#000000" stroke-width="2" stroke-linecap="round" stroke-linejoin="round"/>
    <path d="M176.306,271.208 C175.962,270.577 176.769,270.745 176.935,270.578" fill-opacity="0" stroke="#000000" stroke-width="2" stroke-linecap="round" stroke-linejoin="round"/>
    <path d="M176.586,270.508 C176.703,270.755 176.632,271.021 176.656,271.278" fill-opacity="0" stroke="#000000" stroke-width="2" stroke-linecap="round" stroke-linejoin="round"/>
    <path d="M173.159,270.159 C172.652,269.013 172.468,270.406 172.18,270.508" fill-opacity="0" stroke="#000000" stroke-width="2" stroke-linecap="round" stroke-linejoin="round"/>
    <path d="M172.599,270.788 C178.214,267.689 166.855,274.64 167.494,276.173 C168.551,278.709 181.593,266.443 181.341,266.242 C180.463,265.539 173.994,273.301 175.257,274.704 C177.875,277.613 187.181,265.307 187.006,265.263 C185.328,264.844 179.7,271.89 180.362,273.655 C181.099,275.62 184.479,272.829 186.516,272.327" fill-opacity="0" stroke="#000000" stroke-width="2" stroke-linecap="round" stroke-linejoin="round"/>
    <path d="M187.845,269.319 C186.701,271.422 184.93,273.019 183.439,274.844" fill-opacity="0" stroke="#000000" stroke-width="2" stroke-linecap="round" stroke-linejoin="round"/>
    <path d="M186.516,269.809 C184.79,272.862 182.409,275.538 180.222,278.271" fill-opacity="0" stroke="#000000" stroke-width="2" stroke-linecap="round" stroke-linejoin="round"/>
    <path d="M185.188,269.18 C182.134,273.086 177.276,277.239 173.998,279.88" fill-opacity="0" stroke="#000000" stroke-width="2" stroke-linecap="round" stroke-linejoin="round"/>
    <path d="M181.411,268.27 C178.413,271.258 175.766,275.176 173.159,278.691" fill-opacity="0" stroke="#000000" stroke-width="2" stroke-linecap="round" stroke-linejoin="round"/>
    <path d="M180.922,268.62 C176.617,271.205 172.857,275.83 169.312,279.67" fill-opacity="0" stroke="#000000" stroke-width="2" stroke-linecap="round" stroke-linejoin="round"/>
    <path d="M173.229,269.739 C171.888,269.811 169.043,274.492 167.494,276.523" fill-opacity="0" stroke="#000000" stroke-width="2" stroke-linecap="round" stroke-linejoin="round"/>
    <path d="M172.25,269.809 C171.543,269.182 169.516,272.618 168.543,273.865" fill-opacity="0" stroke="#000000" stroke-width="2" stroke-linecap="round" stroke-linejoin="round"/>
    <path d="M171.131,269.879 C168.329,271.68 166.922,274.897 165.186,277.642" fill-opacity="0" stroke="#000000" stroke-width="2" stroke-linecap="round" stroke-linejoin="round"/>
    <path d="M138.465,263.568 C138.465,263.568 143.547,286.116 154.304,264.481" fill-opacity="0" stroke="#000000" stroke-width="6"/>
    <path d="M131.263,247.563 L130.1,245.865" fill="#000000"/>
    <path d="M55.212,147.906 L55.276,147.755 L55.374,147.529 L55.439,147.391 L55.464,147.348 L55.411,147.45 L55.079,147.895 L52.15,148.378 L50.608,145.853 L50.615,145.365 L50.62,145.3 L50.6,145.382 L50.557,145.548 L50.497,145.774 L50.42,146.05 L50.329,146.368 L50.224,146.725 L50.107,147.115 L49.978,147.538 L49.763,148.229 L49.442,149.237 L49.088,150.327 L48.705,151.486 L48.296,152.697 L47.646,154.583 L46.739,157.132 L46.051,158.995 L45.598,160.183 L45.153,161.317 L44.723,162.375 L44.315,163.339 L43.934,164.189 L43.677,164.73 L43.524,165.034 L43.38,165.306 L43.253,165.529 L43.149,165.696 L43.077,165.796 L43.052,165.818 L43.108,165.74 L43.314,165.54 L43.828,165.237 L44.868,165.09 L46.108,165.605 L46.783,166.399 L47.004,166.901 L47.06,167.102 L47.071,167.096 L47.074,167.08 L47.075,167.112 L47.073,166.501 L47.062,165.292 L47.04,164.125 L47.008,163.009 L46.966,161.942 L46.915,160.921 L46.855,159.948 L46.788,159.021 L46.712,158.138 L46.63,157.298 L46.541,156.5 L46.446,155.744 L46.345,155.028 L46.239,154.351 L46.128,153.71 L46.013,153.107 L45.894,152.539 L45.771,152.005 L45.585,151.282 L45.328,150.422 L45.053,149.653 L44.761,148.976 L44.441,148.369 L44.058,147.8 L43.523,147.223 L42.577,146.643 L40.818,146.614 L39.307,147.954 L38.907,149.318 L38.928,150.29 L39.089,151.071 L39.333,151.776 L39.652,152.452 L40.046,153.115 L40.519,153.769 L41.074,154.413 L41.713,155.041 L42.441,155.647 L43.26,156.224 L44.171,156.765 L45.177,157.262 L45.758,157.511 L45.758,157.511 C45.795,157.527 45.832,157.541 45.869,157.555 L45.869,157.555 L45.996,157.601 L46.462,157.736 L47.027,157.827 L47.612,157.835 L48.199,157.75 L48.766,157.573 L49.293,157.313 L49.767,156.988 L50.317,156.473 L50.922,155.682 L51.412,154.794 L51.787,153.885 L52.083,152.958 L52.324,152.01 L52.524,151.04 L52.692,150.051 L52.894,148.562 L53.101,146.541 L53.26,144.546 L53.36,143.122 L53.421,142.232 L53.482,141.401 L53.544,140.64 L53.608,139.964 L53.677,139.39 L53.747,138.942 L53.812,138.656 L53.846,138.596 L53.753,138.885 L53.269,139.553 L52.398,140.071 L51.491,140.163 L50.751,139.945 L50.314,139.662 L50.102,139.46 L50.021,139.37 L50.017,139.38 L50.016,139.382 L49.891,139.11 L49.931,139.21 L49.825,138.943 L49.791,138.869 L49.783,139.051 L49.765,139.397 L49.728,139.861 L49.671,140.418 L49.594,141.05 L49.5,141.744 L49.389,142.492 L49.196,143.698 L48.901,145.406 L48.577,147.176 L48.238,148.96 L47.899,150.705 L47.654,151.957 L47.498,152.754 L47.351,153.513 L47.213,154.228 L47.087,154.894 L46.975,155.506 L46.877,156.06 L46.796,156.554 L46.732,156.991 L46.685,157.388 L46.658,157.807 L46.708,158.581 L47.931,160.657 L47.931,160.657 C48.496,161.073 49.174,161.239 49.831,161.122 L49.831,161.122 L49.862,161.116 L50.774,160.75 L51.368,160.251 L51.692,159.854 L51.921,159.509 L52.111,159.182 L52.286,158.854 L52.456,158.515 L52.706,157.984 L53.056,157.198 L53.427,156.327 L53.813,155.39 L54.215,154.397 L54.627,153.361 L55.261,151.759 L56.114,149.609 L56.739,148.06 L57.139,147.092 L57.522,146.189 L57.882,145.374 L58.21,144.667 L58.426,144.233 L58.548,144.001 L58.66,143.804 L58.749,143.659 L58.807,143.577 L58.817,143.574 L58.745,143.671 L58.511,143.896 L57.93,144.224 L56.763,144.325 L55.503,143.673 L54.913,142.862 L54.738,142.399 L54.697,142.229 L54.688,142.253 L54.681,142.413 L54.665,142.681 L54.635,143.042 L54.589,143.487 L54.525,144.013 L54.444,144.617 L54.343,145.3 L54.224,146.06 L54.086,146.898 L53.927,147.816 L53.748,148.815 L53.651,149.341 L53.652,149.337 L53.615,149.533 L53.536,149.961 L53.448,150.428 L53.354,150.934 L53.2,151.753 L52.979,152.932 L52.746,154.179 L52.51,155.458 L52.276,156.734 L52.053,157.971 L51.848,159.134 L51.71,159.941 L51.626,160.441 L51.552,160.903 L51.487,161.326 L51.431,161.708 L51.385,162.051 L51.35,162.362 L51.325,162.664 L51.317,163.057 L51.538,164.23 L55.755,165.447 L56.453,164.426 L56.623,163.977 L56.748,163.58 L56.814,163.354 L56.814,163.354 C56.816,163.349 56.817,163.345 56.818,163.341 L56.818,163.341 L57.026,162.616 L57.432,161.212 L57.826,159.865 L58.209,158.573 L58.582,157.334 L58.944,156.148 L59.295,155.015 L59.636,153.933 L59.967,152.902 L60.287,151.92 L60.598,150.988 L60.898,150.105 L61.189,149.27 L61.47,148.481 L61.742,147.74 L62.003,147.045 L62.255,146.395 L62.497,145.791 L62.73,145.231 L62.952,144.716 L63.164,144.244 L63.365,143.817 L63.555,143.433 L63.733,143.094 L63.898,142.798 L64.049,142.547 L64.184,142.341 L64.299,142.181 L64.391,142.067 L64.456,142.001 L64.525,141.95 L64.473,142.033 L64.111,142.251 L63.468,142.366 L62.785,142.215 L62.347,141.948 L62.171,141.791 L62.153,141.817 L62.214,142.015 L62.31,142.353 L62.423,142.806 L62.541,143.351 L62.66,143.973 L62.778,144.66 L62.894,145.399 L63.068,146.594 L63.297,148.279 L63.533,150.022 L63.789,151.777 L64.002,153.08 L64.159,153.939 L64.328,154.767 L64.514,155.57 L64.721,156.348 L64.954,157.101 L65.223,157.828 L65.541,158.536 L65.934,159.23 L66.438,159.911 L67.109,160.554 L67.992,161.079 L69.05,161.348 L70.136,161.276 L71.108,160.917 L71.786,160.492 L72.197,160.159 L72.542,159.832 L72.873,159.481 L73.192,159.105 L73.506,158.702 L73.815,158.273 L74.123,157.815 L74.432,157.327 L74.743,156.808 L75.058,156.255 L75.378,155.667 L75.703,155.044 L76.034,154.383 L76.372,153.684 L76.717,152.945 L77.071,152.165 L77.433,151.344 L77.803,150.479 L78.183,149.57 L78.572,148.616 L78.97,147.616 L79.175,147.094 L79.175,147.094 C79.764,145.595 79.149,143.811 77.803,143.111 C76.456,142.41 74.887,143.057 74.299,144.556 L74.106,145.047 L73.725,146.002 L73.356,146.908 L72.999,147.764 L72.653,148.574 L72.318,149.335 L71.994,150.05 L71.682,150.718 L71.382,151.34 L71.094,151.916 L70.818,152.448 L70.554,152.935 L70.304,153.378 L70.067,153.776 L69.845,154.13 L69.639,154.441 L69.45,154.708 L69.282,154.93 L69.135,155.109 L69.015,155.246 L68.924,155.341 L68.913,155.367 L68.987,155.362 L69.2,155.352 L69.579,155.402 L69.981,155.579 L70.254,155.81 L70.359,155.971 L70.339,155.994 L70.245,155.867 L70.114,155.606 L69.966,155.228 L69.813,154.752 L69.66,154.192 L69.512,153.56 L69.37,152.869 L69.235,152.138 L69.04,150.954 L68.794,149.266 L68.557,147.519 L68.319,145.773 L68.133,144.496 L68.001,143.659 L67.859,142.844 L67.705,142.05 L67.533,141.279 L67.337,140.528 L67.103,139.788 L66.809,139.047 L66.408,138.286 L65.82,137.507 L64.937,136.797 L63.774,136.393 L62.612,136.46 L61.69,136.847 L61.035,137.329 L60.621,137.737 L60.349,138.055 L60.092,138.392 L59.845,138.748 L59.604,139.126 L59.365,139.53 L59.128,139.96 L58.889,140.42 L58.647,140.91 L58.402,141.433 L58.152,141.991 L57.897,142.583 L57.637,143.213 L57.369,143.881 L57.095,144.589 L56.814,145.337 L56.525,146.127 L56.228,146.96 L55.923,147.837 L55.609,148.758 L55.287,149.726 L54.956,150.74 L54.616,151.802 L54.266,152.912 L53.906,154.073 L53.537,155.283 L53.157,156.545 L52.768,157.859 L52.367,159.226 L51.957,160.645 L51.749,161.372 L51.752,161.36 L51.717,161.485 L51.667,161.653 L51.701,161.593 L52.299,160.792 L56.451,162.069 L56.639,163.154 L56.629,163.316 L56.631,163.255 L56.65,163.079 L56.684,162.821 L56.73,162.498 L56.789,162.118 L56.858,161.689 L56.936,161.22 L57.069,160.444 L57.269,159.306 L57.489,158.087 L57.72,156.824 L57.956,155.554 L58.187,154.311 L58.408,153.133 L58.562,152.314 L58.657,151.806 L58.746,151.333 L58.826,150.902 L58.863,150.703 L58.863,150.703 C58.863,150.701 58.863,150.7 58.864,150.698 L58.864,150.698 L58.965,150.145 L59.152,149.105 L59.319,148.139 L59.466,147.245 L59.595,146.42 L59.706,145.661 L59.799,144.963 L59.876,144.322 L59.935,143.732 L59.978,143.185 L60.003,142.669 L60.006,142.164 L59.978,141.639 L59.888,141.032 L59.637,140.239 L58.945,139.202 L57.556,138.424 L56.237,138.495 L55.479,138.885 L55.046,139.259 L54.754,139.589 L54.524,139.9 L54.322,140.207 L54.133,140.524 L53.949,140.856 L53.76,141.218 L53.481,141.786 L53.103,142.601 L52.71,143.494 L52.303,144.452 L51.884,145.466 L51.246,147.05 L50.391,149.206 L49.763,150.791 L49.361,151.802 L48.976,152.753 L48.615,153.629 L48.285,154.407 L47.99,155.074 L47.797,155.485 L47.693,155.696 L47.613,155.852 L47.567,155.939 L47.581,155.932 L47.711,155.794 L48.135,155.472 L48.9,155.197 L48.866,155.202 L50.766,155.667 L51.953,157.717 L51.972,158.283 L51.964,158.298 L51.984,158.108 L52.03,157.789 L52.099,157.368 L52.187,156.863 L52.294,156.283 L52.416,155.638 L52.551,154.936 L52.697,154.184 L52.852,153.388 L53.099,152.127 L53.443,150.356 L53.79,148.528 L54.126,146.693 L54.434,144.905 L54.639,143.621 L54.761,142.795 L54.868,142.001 L54.959,141.241 L55.031,140.516 L55.081,139.821 L55.104,139.143 L55.088,138.448 L54.993,137.659 L54.769,136.85 L54.728,136.749 L54.728,136.749 C54.69,136.656 54.649,136.565 54.603,136.476 L54.603,136.476 L54.48,136.242 L54.243,135.842 L53.944,135.424 L53.526,134.976 L52.896,134.523 L51.976,134.21 L50.899,134.28 L49.87,134.846 L49.169,135.711 L48.82,136.483 L48.631,137.14 L48.501,137.783 L48.4,138.457 L48.317,139.176 L48.244,139.945 L48.178,140.759 L48.115,141.615 L48.054,142.5 L47.959,143.864 L47.814,145.709 L47.631,147.518 L47.461,148.796 L47.334,149.565 L47.197,150.257 L47.054,150.855 L46.913,151.34 L46.793,151.685 L46.727,151.876 L46.709,151.966 L46.745,151.971 L46.852,151.92 L46.994,151.873 L47.156,151.845 L47.318,151.844 L47.456,151.867 L47.552,151.903 L47.527,151.907 L47.4,151.861 L47.511,151.904 L47.184,151.771 L46.524,151.458 L45.962,151.14 L45.493,150.826 L45.107,150.523 L44.799,150.241 L44.562,149.989 L44.39,149.778 L44.277,149.62 L44.218,149.537 L44.203,149.56 L44.214,149.751 L44.185,150.24 L43.827,151.245 L42.439,152.366 L40.875,152.271 L40.188,151.797 L39.965,151.512 L39.939,151.436 L40.01,151.539 L40.136,151.805 L40.295,152.227 L40.479,152.823 L40.623,153.375 L40.717,153.781 L40.812,154.228 L40.906,154.717 L40.999,155.247 L41.089,155.821 L41.177,156.438 L41.261,157.101 L41.34,157.808 L41.415,158.562 L41.484,159.362 L41.546,160.211 L41.602,161.108 L41.649,162.054 L41.689,163.052 L41.719,164.101 L41.74,165.202 L41.751,166.363 L41.753,166.978 L41.753,166.978 C41.753,166.988 41.753,166.999 41.753,167.01 L41.753,167.01 L41.76,167.325 L41.804,167.888 L41.924,168.543 L42.237,169.384 L43.035,170.408 L44.425,171.047 L45.642,170.921 L46.358,170.541 L46.79,170.17 L47.095,169.83 L47.341,169.503 L47.561,169.172 L47.769,168.828 L47.972,168.464 L48.175,168.078 L48.385,167.657 L48.7,166.991 L49.129,166.03 L49.573,164.981 L50.03,163.854 L50.497,162.663 L50.972,161.415 L51.685,159.484 L52.614,156.874 L53.278,154.948 L53.697,153.703 L54.092,152.51 L54.458,151.382 L54.79,150.337 L55.015,149.614 L55.153,149.163 L55.281,148.737 L55.397,148.34 L55.503,147.969 L55.598,147.627 L55.682,147.309 L55.757,147.008 L55.824,146.705 L55.887,146.339 L55.92,145.64 L54.371,142.997 L51.402,143.458 L50.995,143.981 L50.831,144.266 L50.708,144.514 L50.586,144.779 L50.458,145.072 L50.394,145.224 C50.394,145.224 50.394,145.224 50.394,145.224 C49.77,146.704 50.342,148.504 51.673,149.245 C53.003,149.985 54.588,149.386 55.212,147.906 L55.212,147.906" fill="#000000"/>
    <path d="M59.545,154.946 L59.476,155.485 L59.381,156.76 L59.367,158.057 L59.415,159.3 L59.547,161.039 L59.724,163.211 L59.769,164.171 L59.769,164.171 C59.849,165.825 61.103,167.127 62.57,167.079 C64.038,167.031 65.163,165.651 65.083,163.997 L65.024,162.812 L64.849,160.675 L64.731,159.17 L64.689,158.248 L64.687,157.38 L64.743,156.492 L64.813,155.95 C65.023,154.319 64.013,152.771 62.559,152.494 C61.104,152.217 59.755,153.314 59.545,154.946 L59.545,154.946" fill="#000000"/>
    <path d="M61.184,145.644 L61.041,146.046 L60.751,146.96 L60.386,148.349 L60.02,150.201 L59.76,152.05 L59.503,154.712 L59.297,157.287 L59.14,158.905 L59.049,159.66 L59.049,159.66 C58.852,161.294 59.873,162.832 61.329,163.094 C62.786,163.357 64.126,162.246 64.323,160.612 L64.431,159.703 L64.598,157.973 L64.795,155.501 L65.019,153.118 L65.22,151.624 L65.498,150.163 L65.771,149.094 L65.993,148.384 L66.136,147.98 C66.136,147.98 66.136,147.98 66.136,147.98 C66.674,146.456 66.002,144.698 64.635,144.053 C63.267,143.407 61.722,144.12 61.184,145.644 L61.184,145.644" fill="#000000"/>
    <path d="M59.81,145.697 L59.642,146.708 L59.357,148.844 L59.151,150.999 L59.013,153.134 L58.897,156.278 L58.82,160.42 L58.779,162.459 L58.779,162.459 C58.745,164.112 59.909,165.517 61.378,165.596 C62.847,165.676 64.066,164.401 64.099,162.748 C64.099,162.748 64.099,162.748 64.099,162.748 L64.14,160.698 L64.214,156.677 L64.322,153.714 L64.443,151.782 L64.62,149.876 L64.873,147.955 L65.042,146.94 C65.311,145.322 64.357,143.731 62.912,143.387 C61.467,143.044 60.078,144.078 59.81,145.697 L59.81,145.697" fill="#000000"/>
    <path d="M62.71,140.834 L62.448,141.488 L61.931,142.912 L61.47,144.379 L61.074,145.85 L60.737,147.324 L60.453,148.798 L60.217,150.27 L60.022,151.737 L59.798,153.911 L59.59,156.798 L59.448,159.664 L59.334,162.481 L59.275,163.863 L59.275,163.863 C59.203,165.513 60.336,166.95 61.803,167.072 C63.271,167.194 64.519,165.955 64.59,164.305 C64.59,164.305 64.59,164.305 64.59,164.305 L64.65,162.906 L64.762,160.145 L64.894,157.429 L65.084,154.748 L65.287,152.765 L65.455,151.475 L65.657,150.203 L65.895,148.948 L66.173,147.711 L66.496,146.492 L66.868,145.291 L67.306,144.071 L67.57,143.414 C68.169,141.92 67.567,140.132 66.225,139.419 C64.883,138.707 63.309,139.34 62.71,140.834 L62.71,140.834" fill="#000000"/>
    <path d="M64.841,141.831 L64.678,142.366 L64.358,143.53 L64.075,144.721 L63.834,145.909 L63.545,147.66 L63.264,149.989 L63.075,152.313 L62.951,154.604 L62.82,157.966 L62.729,160.167 L62.729,160.167 C62.66,161.817 63.794,163.252 65.262,163.371 C66.73,163.491 67.976,162.249 68.045,160.599 C68.045,160.599 68.045,160.599 68.045,160.599 L68.137,158.38 L68.263,155.118 L68.375,153.003 L68.539,150.935 L68.78,148.891 L69.025,147.377 L69.221,146.396 L69.448,145.426 L69.717,144.435 L69.881,143.897 C70.353,142.344 69.607,140.622 68.215,140.051 C66.823,139.481 65.312,140.278 64.841,141.831 L64.841,141.831" fill="#000000"/>
    <path d="M67.279,143.271 L67.186,143.449 L66.942,143.973 L66.712,144.557 L66.518,145.147 L66.291,146.008 L66.064,147.19 L65.908,148.411 L65.816,149.628 L65.773,150.83 L65.771,152.008 L65.798,153.148 L65.848,154.235 L65.912,155.254 L65.983,156.188 L66.053,157.018 L66.115,157.723 L66.151,158.152 L66.168,158.375 L66.179,158.546 L66.182,158.646 L66.181,158.623 L66.181,158.623 C66.202,160.278 67.41,161.634 68.88,161.652 C70.349,161.67 71.523,160.343 71.502,158.688 C71.502,158.688 71.502,158.688 71.502,158.688 L71.498,158.52 L71.487,158.27 L71.471,158.013 L71.449,157.734 L71.411,157.283 L71.351,156.599 L71.285,155.827 L71.22,154.98 L71.163,154.075 L71.118,153.131 L71.093,152.167 L71.092,151.205 L71.12,150.267 L71.18,149.376 L71.274,148.559 L71.406,147.809 L71.528,147.31 L71.608,147.045 L71.687,146.82 L71.79,146.585 L71.884,146.405 C72.621,144.994 72.187,143.149 70.915,142.284 C69.643,141.419 68.015,141.861 67.279,143.271 L67.279,143.271" fill="#000000"/>
    <path d="M67.28,149.576 L67.146,150.076 L66.894,151.286 L66.724,152.531 L66.629,153.726 L66.564,155.391 L66.499,157.455 L66.435,158.348 L66.435,158.348 C66.321,159.994 67.416,161.466 68.882,161.636 C70.347,161.806 71.627,160.61 71.741,158.964 C71.741,158.964 71.741,158.964 71.741,158.964 L71.817,157.821 L71.882,155.794 L71.931,154.389 L71.991,153.543 L72.084,152.759 L72.241,151.952 L72.376,151.45 C72.8,149.878 72.003,148.184 70.596,147.667 C69.189,147.149 67.705,148.004 67.28,149.576 L67.28,149.576" fill="#000000"/>
    <path d="M69.873,146.259 L69.582,146.716 L68.976,147.786 L68.431,148.923 L67.971,150.074 L67.59,151.231 L67.28,152.387 L67.029,153.538 L66.83,154.679 L66.609,156.339 L66.403,158.523 L66.24,160.65 L66.063,162.684 L65.955,163.632 L65.955,163.632 C65.77,165.268 66.802,166.797 68.26,167.046 C69.718,167.296 71.05,166.172 71.234,164.536 L71.359,163.421 L71.543,161.314 L71.696,159.299 L71.874,157.363 L72.055,155.963 L72.204,155.084 L72.383,154.233 L72.595,153.41 L72.847,152.614 L73.144,151.839 L73.493,151.082 L73.932,150.292 L74.225,149.832 C74.225,149.832 74.225,149.832 74.225,149.832 C75.071,148.504 74.783,146.627 73.581,145.64 C72.379,144.653 70.719,144.93 69.873,146.259 L69.873,146.259" fill="#000000"/>
    <path d="M71.044,141.723 L70.728,142.645 L70.118,144.578 L69.564,146.546 L69.07,148.521 L68.631,150.5 L68.241,152.48 L67.893,154.462 L67.584,156.443 L67.179,159.398 L66.718,163.331 L66.309,167.245 L65.912,171.116 L65.706,173.024 L65.706,173.024 C65.529,174.661 66.568,176.184 68.027,176.425 C69.486,176.666 70.812,175.534 70.989,173.896 C70.989,173.896 70.989,173.896 70.989,173.896 L71.199,171.952 L71.595,168.093 L71.995,164.262 L72.439,160.457 L72.826,157.626 L73.116,155.764 L73.438,153.918 L73.797,152.087 L74.197,150.275 L74.642,148.482 L75.138,146.708 L75.698,144.928 L76.015,144.005 C76.54,142.474 75.852,140.723 74.48,140.093 C73.107,139.463 71.569,140.193 71.044,141.723 L71.044,141.723" fill="#000000"/>
    <path d="M54.656,140.635 L54.24,141.49 L53.43,143.322 L52.699,145.208 L52.058,147.109 L51.499,149.019 L51.015,150.936 L50.596,152.858 L50.236,154.78 L49.926,156.701 L49.658,158.618 L49.321,161.47 L48.946,165.255 L48.605,169.003 L48.43,170.846 L48.43,170.846 C48.274,172.487 49.332,173.993 50.793,174.21 C52.255,174.427 53.566,173.273 53.722,171.633 L53.899,169.764 L54.235,166.067 L54.596,162.408 L54.916,159.693 L55.163,157.914 L55.445,156.156 L55.768,154.419 L56.137,152.706 L56.56,151.016 L57.042,149.351 L57.59,147.711 L58.208,146.096 L58.923,144.47 L59.339,143.613 C60.037,142.177 59.554,140.346 58.261,139.524 C56.968,138.701 55.354,139.199 54.656,140.635 L54.656,140.635" fill="#000000"/>
    <path d="M48.619,146.085 L48.398,146.677 L47.959,147.965 L47.561,149.291 L47.211,150.622 L46.904,151.956 L46.635,153.29 L46.297,155.269 L45.932,157.906 L45.635,160.528 L45.375,163.105 L45.117,165.624 L44.981,166.844 L44.981,166.844 C44.798,168.48 45.832,170.007 47.29,170.254 C48.748,170.502 50.079,169.376 50.262,167.74 C50.262,167.74 50.262,167.74 50.262,167.74 L50.404,166.458 L50.663,163.932 L50.915,161.432 L51.192,158.97 L51.524,156.542 L51.828,154.75 L52.059,153.59 L52.319,152.449 L52.61,151.329 L52.935,150.229 L53.31,149.12 L53.532,148.526 C53.532,148.526 53.532,148.526 53.532,148.526 C54.097,147.015 53.455,145.243 52.098,144.569 C50.741,143.895 49.184,144.573 48.619,146.085 L48.619,146.085" fill="#000000"/>
    <path d="M43.881,146.227 L43.707,146.773 L43.363,147.963 L43.058,149.185 L42.797,150.404 L42.484,152.204 L42.176,154.603 L41.962,156.996 L41.813,159.353 L41.639,162.805 L41.511,165.05 L41.511,165.05 C41.417,166.698 42.53,168.154 43.996,168.302 C45.463,168.45 46.728,167.234 46.822,165.586 L46.953,163.295 L47.122,159.926 L47.258,157.738 L47.444,155.6 L47.709,153.493 L47.975,151.936 L48.186,150.931 L48.43,149.941 L48.718,148.932 L48.894,148.384 C48.894,148.384 48.894,148.384 48.894,148.384 C49.388,146.839 48.666,145.105 47.282,144.51 C45.898,143.914 44.375,144.683 43.881,146.227 L43.881,146.227" fill="#000000"/>
    <path d="M43.007,146.858 L42.898,147.835 L42.724,149.872 L42.618,151.93 L42.577,153.975 L42.595,156.009 L42.666,158.03 L42.786,160.039 L42.948,162.036 L43.256,164.997 L43.763,168.92 L44.341,172.817 L44.948,176.679 L45.248,178.596 L45.248,178.596 C45.504,180.232 46.885,181.358 48.332,181.111 C49.779,180.864 50.745,179.337 50.488,177.701 C50.488,177.701 50.488,177.701 50.488,177.701 L50.188,175.782 L49.59,171.975 L49.029,168.203 L48.541,164.448 L48.248,161.641 L48.096,159.787 L47.984,157.939 L47.916,156.096 L47.897,154.258 L47.931,152.424 L48.022,150.592 L48.179,148.73 L48.288,147.753 C48.47,146.116 47.436,144.589 45.978,144.343 C44.52,144.096 43.189,145.222 43.007,146.858 L43.007,146.858" fill="#000000"/>
    <path d="M50.398,153.153 L50.324,154.16 L50.254,156.315 L50.285,158.484 L50.393,160.613 L50.64,163.715 L50.999,167.743 L51.138,169.678 L51.138,169.678 C51.256,171.33 52.539,172.596 54.004,172.504 C55.469,172.413 56.561,170.999 56.442,169.347 C56.442,169.347 56.442,169.347 56.442,169.347 L56.295,167.294 L55.94,163.329 L55.706,160.417 L55.606,158.529 L55.573,156.677 L55.628,154.804 L55.702,153.795 C55.822,152.15 54.732,150.672 53.268,150.495 C51.803,150.317 50.518,151.508 50.398,153.153 L50.398,153.153" fill="#000000"/>
    <path d="M134.748,251.567 L135.258,252.907 L136.385,255.638 L137.602,258.341 L138.885,260.991 L140.217,263.598 L141.584,266.166 L143.665,269.957 L145.06,272.466 L145.06,272.466 C145.848,273.885 147.492,274.344 148.733,273.493 C149.973,272.641 150.34,270.8 149.551,269.381 C149.551,269.381 149.551,269.381 149.551,269.381 L148.173,266.9 L146.13,263.181 L144.812,260.707 L143.543,258.227 L142.335,255.735 L141.201,253.226 L140.141,250.663 L139.63,249.321 C139.63,249.321 139.63,249.321 139.63,249.321 C139.045,247.787 137.478,247.046 136.13,247.666 C134.782,248.286 134.163,250.033 134.748,251.567 L134.748,251.567" fill="#000000"/>
    <path d="M132.317,227.927 L132.384,228.799 L132.557,230.605 L132.776,232.42 L133.036,234.221 L133.333,236.008 L133.664,237.782 L134.214,240.405 L135.037,243.873 L135.939,247.312 L137.378,252.394 L138.365,255.759 L138.365,255.759 C138.829,257.342 140.336,258.234 141.73,257.752 C143.125,257.269 143.879,255.595 143.415,254.012 C143.415,254.012 143.415,254.012 143.415,254.012 L142.445,250.705 L141.04,245.749 L140.176,242.463 L139.392,239.169 L138.871,236.691 L138.563,235.048 L138.288,233.404 L138.049,231.759 L137.848,230.11 L137.686,228.436 L137.619,227.56 C137.492,225.909 136.203,224.652 134.739,224.753 C133.274,224.854 132.19,226.275 132.317,227.927 L132.317,227.927" fill="#000000"/>
    <path d="M132.569,230.701 L132.771,232.838 L133.279,237.174 L133.9,241.505 L134.608,245.807 L135.381,250.079 L136.199,254.326 L137.46,260.65 L138.294,264.845 L138.294,264.845 C138.617,266.468 140.04,267.523 141.474,267.201 C142.908,266.878 143.809,265.301 143.486,263.678 L142.652,259.48 L141.399,253.199 L140.595,249.025 L139.84,244.858 L139.153,240.697 L138.555,236.539 L138.063,232.353 L137.861,230.214 C137.704,228.565 136.393,227.337 134.932,227.471 C133.471,227.606 132.413,229.052 132.569,230.701 L132.569,230.701" fill="#000000"/>
    <path d="M133.117,237.48 L133.455,239.122 L134.173,242.432 L134.937,245.738 L135.744,249.028 L136.591,252.305 L137.477,255.57 L138.401,258.822 L139.36,262.063 L139.856,263.689 L139.856,263.689 C140.336,265.266 141.852,266.138 143.24,265.637 C144.629,265.136 145.366,263.451 144.885,261.874 C144.885,261.874 144.885,261.874 144.885,261.874 L144.405,260.299 L143.466,257.129 L142.563,253.951 L141.698,250.766 L140.872,247.572 L140.086,244.367 L139.342,241.151 L138.639,237.91 L138.3,236.266 C137.966,234.646 136.535,233.604 135.104,233.939 C133.673,234.274 132.783,235.859 133.117,237.48 L133.117,237.48" fill="#000000"/>
    <path d="M134.08,241.301 L134.265,242.412 L134.675,244.674 L135.129,246.935 L135.623,249.179 L136.156,251.405 L136.727,253.615 L137.334,255.807 L137.977,257.984 L138.653,260.145 L139.362,262.29 L140.102,264.42 L140.872,266.536 L141.67,268.637 L142.496,270.723 L143.779,273.819 L144.672,275.882 L144.672,275.882 C145.323,277.384 146.918,278.039 148.236,277.345 C149.554,276.65 150.095,274.87 149.445,273.367 C149.445,273.367 149.445,273.367 149.445,273.367 L148.592,271.397 L147.348,268.401 L146.555,266.397 L145.789,264.384 L145.052,262.361 L144.344,260.327 L143.667,258.281 L143.023,256.224 L142.411,254.156 L141.834,252.075 L141.292,249.982 L140.786,247.875 L140.318,245.755 L139.889,243.621 L139.496,241.456 L139.311,240.341 C139.311,240.341 139.311,240.341 139.311,240.341 C139.039,238.708 137.648,237.598 136.203,237.863 C134.759,238.128 133.809,239.667 134.08,241.301 L134.08,241.301" fill="#000000"/>
    <path d="M136.534,247.627 L136.629,248.31 L136.867,249.757 L137.154,251.212 L137.481,252.646 L138.031,254.741 L138.864,257.487 L139.78,260.19 L140.74,262.838 L141.712,265.442 L142.661,268.01 L143.115,269.272 L143.115,269.272 C143.671,270.819 145.224,271.598 146.585,271.011 C147.945,270.424 148.597,268.694 148.042,267.147 C148.042,267.147 148.042,267.147 148.042,267.147 L147.567,265.827 L146.611,263.242 L145.66,260.694 L144.745,258.173 L143.894,255.676 L143.131,253.172 L142.633,251.289 L142.347,250.048 L142.099,248.806 L141.887,247.532 L141.792,246.846 C141.792,246.846 141.792,246.846 141.792,246.846 C141.563,245.205 140.201,244.05 138.749,244.265 C137.298,244.481 136.306,245.986 136.534,247.627 L136.534,247.627" fill="#000000"/>
    <path d="M139.771,259.4 L139.894,260.037 L140.205,261.409 L140.577,262.788 L140.998,264.137 L141.463,265.459 L141.965,266.752 L142.499,268.021 L143.06,269.264 L143.936,271.075 L145.158,273.436 L146.412,275.744 L147.652,277.999 L148.254,279.104 L148.254,279.104 C149.031,280.531 150.672,281.008 151.919,280.169 C153.167,279.33 153.549,277.494 152.772,276.067 L152.157,274.938 L150.933,272.714 L149.737,270.513 L148.594,268.311 L147.791,266.654 L147.294,265.559 L146.831,264.464 L146.402,263.368 L146.011,262.269 L145.663,261.167 L145.358,260.059 L145.094,258.906 L144.97,258.267 C144.656,256.641 143.237,255.578 141.801,255.891 C140.366,256.204 139.457,257.775 139.771,259.4 L139.771,259.4" fill="#000000"/>
  </g>
</svg>
