<?xml version="1.0" encoding="utf-8"?>
<!-- Generator: Adobe Illustrator 21.0.2, SVG Export Plug-In . SVG Version: 6.00 Build 0)  -->
<svg version="1.1" id="Layer_1" xmlns="http://www.w3.org/2000/svg" xmlns:xlink="http://www.w3.org/1999/xlink" x="0px" y="0px"
	 viewBox="0 0 944 704" style="enable-background:new 0 0 944 704;" xml:space="preserve">
<style type="text/css">
	.st0{display:none;opacity:0.39;}
	.st1{display:inline;}
	.st2{display:inline;fill-opacity:0;stroke:#000000;stroke-width:2;stroke-linecap:round;stroke-linejoin:round;}
	.st3{font-family:'Helvetica';}
	.st4{font-size:12px;}
	.st5{fill-opacity:0;stroke:#FFFFFF;stroke-width:2;stroke-linecap:round;stroke-linejoin:round;}
	.st6{fill-opacity:0;stroke:#FFFFFF;stroke-width:2;}
</style>
<g id="Layer_1_1_" class="st0">
	<g class="st1">
		<defs>
			<path id="SVGID_1_" d="M934.2-27.5v909.1H-278V-27.5H934.2z M728.1,401.5c-4.4,0.4-2.5,0-5.7,0.8c-6.1,1.7-14,5.9-23.5,12.2
				c-14.4,9.6-33.6,25-37.7,29.9c-2.1,2.4-3.5,4.5-4.3,6.4c-0.7,1.5-0.9,3.1-0.9,4.7l-0.5,0.1c-1.1,0.2-0.7,0.1-1.1,0.2
				c-2,0-3.9,0.5-5.8,0.7c-0.8,0.1-1.3,0.2-2.3,0.5c0,0,0,0,0,0c-0.5,0.1-0.7,0.2-0.9,0.2c0,0,0,0-0.1,0c-0.1,0-0.3,0-0.4,0.1
				c-0.1,0-0.3,0-0.6,0.1c-0.3,0-0.4,0-0.6,0.1c-0.1,0-0.3,0-0.4,0.1c-0.2,0-0.2,0-0.4,0.1c-0.4,0.1-0.4,0.1-1.5,0.5
				c-0.5,0.2-0.5,0.2-1.2,0.7c-1,0.7-1,0.7-2.4,2.6c-0.7,1.4-0.7,1.4-0.9,3.4c0.1,2,0.1,2,0.9,3.7c1.7,2.3,1.7,2.3,3,3
				c2.5,0.9,2.5,0.9,3,0.9c0.3,0,0.6,0,0.9,0c5.6-0.2,11.1-0.8,16.4-2.6c0.6,1.6,0.2,0.9,1.1,2.2c1.9,2.5,4.8,3.6,7.6,3.3
				c1.5-0.1,2.6-0.6,3.8-1.2c0.4-0.2,0.8-0.5,1.3-0.8c0.2-0.2,0.8-0.5,0.8-0.5l0.2-0.2c-0.6,1.4-0.7,2.9-0.7,4.3
				c0.1,1.4,0.4,2.8,1.2,4l-0.1,0.1c0,0.1-0.5,0.7-0.7,1c-0.1,0.1-0.1,0.2-0.2,0.3c-0.6,1-1.1,1.8-1.4,2.8c-0.2,0.6-0.4,1.2-0.4,1.9
				c-0.1,1.4,0,2.9,0.9,4.4c1.2,2.1,3.2,3.5,5.4,3.9c1.3,0.2,2.5,0.1,3.5-0.2c4.8-1.4,9.7-5.4,16.5-12.6c2.4-2.6,4.8-5.2,7.2-7.9
				c0,0,0,0,0,0c0.1,0.6,0.3,1.2,0.4,1.8c0.4,1,0.2,0.6,0.6,1.4c-2,2.8-1.5,5.9,0.2,8.7c0.3,0.4,0.7,0.7,1,1.1
				c3.1,2.7,7.8,2.4,10.6-0.7c1.3-1.4,2.5-2.8,3.9-4.1c0.6,0.8,0.2,0.3,1.5,1.4c3.5,2.2,8.1,1.1,10.3-2.5c0.6-1,0.3-0.6,0.7-1.2
				c1.9-1,2.7-3,3.2-5l0-0.7c0.2-0.4,0,0,0.6-1c1.2-2,2.4-4,3.8-5.9c2.3-1.4,4.6-2.7,6.9-4c1.4,0.9,0.7,0.4,2,1.4
				c2.4,1.7,3.1,1.7,5.8,1.4c-0.3,1.4-0.2,0.6-0.2,2.2c0,1.9,0.7,3.8,2.4,5.4c1.9,1.8,4.3,2.4,6.5,2.1c1.1-0.2,1.9-0.5,2.7-0.9
				c0.8-0.4,1.6-1,2.4-1.7c1.2-1,2.8-2.5,4.8-4.6c1-1,4.5-4.7,5.1-5.3c8.6-9,13.3-15.1,16.8-22.6c0.3-0.7,0.6-1.3,0.8-2
				c0.2-0.5,0.3-1,0.3-1.6c0.1-1.3,0-2.6-0.5-3.9c0.5-0.7,0.2-0.3,0.9-1.3c1-1.5,1.7-2.7,2.2-3.8c0.5-1,0.8-2,0.9-3.2
				c0.4-3.6-1.5-7.6-6.2-8.5l-1.6-0.2c-15,0.7-27.1,12.1-39.1,19.9c-2.1,1.5-4.2,3.1-6.5,4.8l-0.1,0.1c-0.3-0.6-0.8-1-1.2-1.5
				c-1.3-1-1.3-1-2.2-1.4l-0.3-0.1l0-0.1l0.1-0.2c1.8-2.6,2.9-4.5,3.5-6c0.3-0.8,0.5-1.5,0.7-2.4c0.3-2-0.1-4-1.6-6
				c-1.9-2.4-4.5-3.2-7-2.9c-1.1,0.1-2.1,0.4-3,0.9c-5.6,2.8-10.5,6.8-14.9,11.3l-0.2-0.3c-2.1-3.1-5.3-3.9-8.2-3.3
				c-1.1,0.2-2.1,0.6-3.1,1.2c-1.2,0.7-2.4,1.6-3.9,2.8c-1.9,1.5-3.6,3.2-5.4,4.9c-3,0.9-6,1.5-9,2.2c-1.8,0.4-2.3,0.5-3.2,0.7
				c-1,0.2-1.9,0.4-3.7,0.9c0,0,0,0-0.1,0l-1.1,0.2c7-5.5,14-10.8,21.4-15.7c5.7-3.7,11.5-7.5,17.9-9.8c0.9,3.4,2.6,5,6,5.8
				c4.1,0.6,7.9-2.2,8.6-6.3C740.5,408,737.2,402.2,728.1,401.5L728.1,401.5z M694.4,482C694.4,482,694.4,482,694.4,482
				C694.4,482,694.4,482,694.4,482L694.4,482z M647,464.2L647,464.2L647,464.2c1.7,3.2,0.8,1.6,2.6,4.8c-0.9-0.8-1.6-1.7-2.1-2.8
				C647.2,464.9,647.3,465.6,647,464.2L647,464.2z"/>
		</defs>
		<clipPath id="SVGID_2_">
			<use xlink:href="#SVGID_1_"  style="overflow:visible;"/>
		</clipPath>
		<g style="clip-path:url(#SVGID_2_);enable-background:new    ;">
			
				<image style="overflow:visible;" width="2048" height="1536" xlink:href="9CD5002A2447AD13.png"  transform="matrix(0.5919 0 0 0.5919 -316.087 -27.4688)">
			</image>
		</g>
	</g>
	<path class="st2" d="M677.9,466.5l-1.1-0.5"/>
	<path class="st2" d="M677.2,462.4c-3.6-1.4-7.3-2.6-11-3.7"/>
	<path class="st2" d="M789.4,355.4c-10.5-0.4-21-3-31.2-5.5"/>
	<path class="st2" d="M771.8,363.1c-9.8-5.2-20.4-8.4-30.8-12.1"/>
	<path class="st2" d="M815.4,242.4c-9.5-0.7-17.4-7.5-26.4-10.3"/>
	<path class="st2" d="M805.5,262.2c-15-6.9-33.9-14.5-44.4-26"/>
	<path class="st2" d="M488.4,142L488.4,142"/>
	<text transform="matrix(1 0 0 1 517.253 289.292)" class="st1 st3 st4">Double-Tap To Edit</text>
</g>
<g id="Layer_2">
	<path class="st5" d="M714.6,343.9c23.4,47.5,47.6,94.6,73.5,140.7"/>
	<path class="st5" d="M658.3,407.5c26.7,39.9,45.8,84.2,69.2,126"/>
	<path class="st5" d="M658.3,406.9c-33.8,31.3-36.5,94.7-82.2,118"/>
	<path class="st5" d="M448.5,409c1.4,1,1.7,2.8,2.5,4.1"/>
	<path class="st5" d="M451.9,415.1c29.5,53,53.4,119.1,123.7,110.5"/>
	<path class="st5" d="M364,541.3c43.7-31.5,55-91,82.5-133.2"/>
	<path class="st5" d="M321.4,472.4c43.4-56.4,73.7-216.1,167.7-149.7"/>
	<path class="st5" d="M489.7,323.2c28,29.7,40.1,70.6,62.4,104.3"/>
	<path class="st5" d="M659.1,306.1c-61.8,5.9-81.2,75.9-106.3,124.3"/>
	<path class="st5" d="M661.3,306.1c20.3,3.9,39.9,18.3,53,37"/>
	<path class="st5" d="M271.5,314.6c1.2,33.6-13.1,208.6,49.8,158.8"/>
	<path class="st5" d="M197.1,482.2C218.2,554.7,307,592.5,364,541.3"/>
	<path class="st5" d="M191,314.6c1.7,52.5,0.2,115.6,5.9,167.6"/>
	<path class="st6" d="M191,314.6h80.4"/>
	<path class="st6" d="M231.2,280.8c-26.8,0-48.5-20.8-48.5-46.4c0-25.6,21.7-46.4,48.5-46.4s48.5,20.8,48.5,46.4
		C279.8,260,258,280.8,231.2,280.8z"/>
	<path class="st5" d="M726.4,533.3c112.3,102.3,175.1-6.3,181.3-115.1"/>
	<path class="st5" d="M910.7,264c-1.5,51.9-3.7,104.4-3.7,156.5"/>
	<path class="st5" d="M790.4,484.4L790.4,484.4"/>
	<path class="st5" d="M788.6,483.2L788.6,483.2"/>
	<path class="st6" d="M829.7,215.6l-2.4,221.3"/>
	<path class="st6" d="M910.7,210.3v63.1"/>
	<path class="st6" d="M339.2,104.3h407.6"/>
	<path class="st6" d="M746.8,104.3c0,0,76.6,13.6,82.9,111.4"/>
	<path class="st6" d="M737.2,8c92.5-0.3,177.1,123.3,173.5,202.3"/>
	<path class="st6" d="M737.2,8L321.4,8"/>
	<path class="st5" d="M789.1,484.7c32.2,11.7,36.7-25.1,38.2-49.5"/>
	<path class="st6" d="M329.6,8h-8.3"/>
	<path class="st6" d="M321.4,8h-7.6"/>
	<path class="st6" d="M313.8,8H191"/>
	<path class="st6" d="M191,8C191,8,38.3,55.8,37,197.8"/>
	<path class="st6" d="M36.9,178.4l0.9,358.2c0,0,19.1,143,182.3,155.5s549.1,6.4,549.1,6.4l-0.2-77.2L233,617
		c0,0-110.8-14.5-112.4-98.1c-1.6-83.6,2.7-328.5,2.7-328.5s9.7-85.6,114.1-85.9c104.4-0.3,82.7-0.2,82.7-0.2"/>
	<path class="st6" d="M475,104.3l-135.8-0.1"/>
	<path class="st6" d="M320.1,104.4l23.7,0"/>
</g>
</svg>
